<svg width="21" height="21" viewBox="0 0 21 21" fill="none" xmlns="http://www.w3.org/2000/svg">
<g clip-path="url(#clip0_69_2)">
<path d="M14.9887 12.4556C14.7394 12.3375 13.545 11.7469 13.3219 11.655C13.0987 11.5631 12.9412 11.5369 12.7706 11.7862C12.6 12.0356 12.1406 12.5737 11.9962 12.7444C11.8519 12.915 11.7206 12.9281 11.4712 12.7444C10.755 12.4569 10.0935 12.0485 9.51562 11.5369C8.99252 11.0444 8.54967 10.4731 8.20312 9.84374C8.05874 9.60749 8.20312 9.47624 8.30812 9.34499C8.41312 9.21374 8.54437 9.06936 8.67562 8.92499C8.7716 8.80013 8.85101 8.66337 8.91187 8.51811C8.94443 8.45056 8.96134 8.37654 8.96134 8.30155C8.96134 8.22656 8.94443 8.15254 8.91187 8.08499C8.91187 7.96686 8.36062 6.77249 8.15062 6.28686C7.94062 5.80124 7.75687 5.86686 7.61249 5.86686H7.08749C6.8374 5.87661 6.60138 5.98518 6.43124 6.16874C6.15661 6.43081 5.93908 6.74678 5.79227 7.09685C5.64547 7.44692 5.57256 7.82355 5.57812 8.20311C5.64525 9.13496 5.98789 10.0258 6.56249 10.7625C7.61691 12.3289 9.05948 13.5951 10.7494 14.4375C11.3269 14.6869 11.7731 14.8312 12.1275 14.9494C12.6251 15.0998 13.1511 15.1312 13.6631 15.0412C14.0032 14.9722 14.3254 14.8341 14.6099 14.6354C14.8944 14.4368 15.135 14.1818 15.3169 13.8862C15.4682 13.5213 15.5181 13.1222 15.4612 12.7312C15.3956 12.6394 15.2381 12.5737 14.9887 12.4556Z" fill="#94B79F"/>
<path d="M17.4431 3.51747C16.5354 2.60119 15.4535 1.87596 14.261 1.38454C13.0685 0.893129 11.7897 0.645485 10.5 0.656218C8.79152 0.665159 7.11528 1.1222 5.6387 1.98169C4.16211 2.84118 2.93688 4.07304 2.08536 5.55423C1.23384 7.03542 0.785841 8.7141 0.786109 10.4226C0.786377 12.1311 1.2349 13.8097 2.08688 15.2906L0.774384 20.3437L5.94563 19.0312C7.37525 19.8091 8.97744 20.2153 10.605 20.2125H10.5C12.4398 20.2251 14.3394 19.6597 15.9565 18.5884C17.5737 17.5172 18.8351 15.9885 19.58 14.1974C20.3249 12.4063 20.5194 10.434 20.1389 8.53184C19.7583 6.62974 18.8198 4.88407 17.4431 3.51747ZM10.5 18.5325C9.04386 18.5336 7.61478 18.1389 6.36563 17.3906L6.07688 17.22L3.00563 18.0206L3.81938 15.0281L3.63563 14.7262C2.58741 13.0381 2.19531 11.024 2.53372 9.06595C2.87213 7.10792 3.91751 5.34222 5.47151 4.10387C7.02552 2.86553 8.98002 2.24069 10.9642 2.34792C12.9484 2.45515 14.8241 3.28699 16.2356 4.68559C16.9923 5.4362 17.5921 6.3299 18 7.31462C18.4078 8.29934 18.6156 9.35539 18.6113 10.4212C18.6078 12.5714 17.7521 14.6325 16.2317 16.1529C14.7113 17.6733 12.6502 18.529 10.5 18.5325Z" fill="#94B79F"/>
</g>
<defs>
<clipPath id="clip0_69_2">
<rect width="21" height="21" fill="white"/>
</clipPath>
</defs>
</svg>
